<svg width="62" height="62" viewBox="0 0 62 62" fill="none" xmlns="http://www.w3.org/2000/svg">
<g clip-path="url(#clip0_1_57)">
<path d="M31 62C48.1208 62 62 48.1208 62 31C62 13.8792 48.1208 0 31 0C13.8792 0 0 13.8792 0 31C0 48.1208 13.8792 62 31 62Z" fill="#F9E2FF"/>
<path d="M36.0944 34.2123V40.7751C36.0944 41.1085 36.3647 41.3786 36.698 41.3786C37.0314 41.3786 37.3016 41.1085 37.3016 40.7751V33.776C37.3016 33.509 37.1261 33.2735 36.8701 33.1975C35.5032 32.7909 34.2736 31.9375 33.4077 30.7941C32.5132 29.6131 32.0404 28.2034 32.0404 26.7175C32.0404 22.99 35.0729 19.9575 38.8004 19.9575C39.4968 19.9575 40.1783 20.0635 40.8253 20.2661C40.6431 20.9612 40.357 21.6197 39.9816 22.222C39.6364 22.0587 39.251 21.967 38.8445 21.967C37.3725 21.967 36.1747 23.1647 36.1747 24.6368C36.1747 26.1088 37.3724 27.3064 38.8445 27.3064C40.3166 27.3064 41.5142 26.1088 41.5142 24.6368C41.5142 24.0095 41.2962 23.4326 40.9328 22.9764C41.3784 22.2871 41.7215 21.5318 41.948 20.7334C42.7369 21.1487 43.4455 21.7215 44.0285 22.4318C44.2399 22.6894 44.6203 22.7268 44.878 22.5153C45.1356 22.3038 45.173 21.9235 44.9616 21.6658C44.1985 20.7362 43.253 20.0055 42.1977 19.5082C42.2412 19.1636 42.2648 18.8139 42.2648 18.4603C42.2648 13.8755 38.5347 10.1454 33.9499 10.1454C29.365 10.1454 25.635 13.8755 25.635 18.4603C25.635 19.7081 25.9183 20.9454 26.4552 22.0627C24.7707 24.5608 24.6216 27.8575 26.1555 30.5082L20.6174 36.0464C20.3817 36.2822 20.3817 36.6643 20.6174 36.9001C20.8531 37.1357 21.2353 37.1357 21.471 36.9001L27.3475 31.0236C27.5509 30.8202 27.5826 30.5016 27.4231 30.2622C25.6471 27.5947 26.0055 24.0113 28.2752 21.7416C29.9475 20.0694 32.3652 19.4165 34.6114 19.9436C33.8156 20.4375 33.1126 21.0671 32.5357 21.8006C31.4634 21.9181 30.4639 22.3948 29.6961 23.1625C27.8438 25.0147 27.8438 28.0286 29.6961 29.8809C30.3895 30.5742 31.2543 31.0243 32.2108 31.195C32.2864 31.3057 32.3638 31.4155 32.4453 31.5231C32.9296 32.1624 33.5111 32.7239 34.1602 33.1896C32.4856 33.4665 30.7476 33.108 29.3141 32.1535C29.0747 31.9942 28.7561 32.0257 28.5528 32.2291L23.0212 37.7606C22.7855 37.9963 22.7855 38.3785 23.0212 38.6142L24.3287 39.9218C24.6594 40.239 24.6594 40.8099 24.3286 41.1271C24.0114 41.4577 23.4405 41.4578 23.1233 41.127L21.8158 39.8195C21.5801 39.5839 21.1979 39.5839 20.9622 39.8195L19.3964 41.3854C19.1626 41.6102 19.1626 42.0142 19.3964 42.2391L20.7038 43.5464C21.0361 43.8787 21.0361 44.4195 20.7038 44.7518C20.3715 45.0842 19.8308 45.0841 19.4985 44.7518L18.191 43.4442C17.9553 43.2086 17.5732 43.2086 17.3375 43.4442L15.6248 45.1568C15.2925 45.4892 14.7518 45.4891 14.4195 45.1569C14.0872 44.8246 14.0872 44.2838 14.4195 43.9515L19.7638 38.6072C19.9995 38.3714 19.9995 37.9894 19.7638 37.7535C19.5281 37.5179 19.1459 37.5179 18.9102 37.7535L13.5658 43.0979C12.7629 43.9008 12.7629 45.2074 13.5658 46.0105C14.3688 46.8134 15.6754 46.8134 16.4784 46.0105L17.7641 44.7247L18.6449 45.6055C19.4478 46.4083 20.7544 46.4084 21.5575 45.6054C22.3604 44.8025 22.3604 43.4959 21.5575 42.6928L20.6768 41.8122L21.389 41.1L22.2697 41.9805C23.0363 42.7796 24.4157 42.7795 25.1823 41.9806C25.9812 41.2141 25.9813 39.8345 25.1823 39.0681L24.3016 38.1873L29.0681 33.4209C31.0644 34.5756 33.4831 34.8075 35.6754 34.0451C35.8136 34.1045 35.953 34.161 36.0944 34.2123ZM38.8445 23.1742C38.9762 23.1742 39.1033 23.1933 39.2249 23.2261C38.7034 23.8035 38.084 24.2981 37.3844 24.6841C37.3839 24.6682 37.3819 24.6527 37.3819 24.6367C37.3819 23.8303 38.038 23.1742 38.8445 23.1742ZM40.307 24.6368C40.307 25.4432 39.651 26.0993 38.8445 26.0993C38.4934 26.0993 38.1708 25.9748 37.9185 25.7677C38.7732 25.3037 39.5277 24.7021 40.1572 23.9959C40.2521 24.1897 40.307 24.4067 40.307 24.6368ZM27.4216 20.888C27.3839 20.9257 27.3482 20.9646 27.3114 21.0029C27.0031 20.1956 26.8421 19.331 26.8421 18.4604C26.8421 14.5412 30.0305 11.3527 33.9497 11.3527C37.869 11.3527 41.0575 14.5412 41.0575 18.4604C41.0575 18.6644 41.0478 18.8667 41.0307 19.0674C40.3149 18.8594 39.5653 18.7504 38.8002 18.7504C37.8835 18.7504 37.0027 18.9066 36.1822 19.1928C33.2092 17.9254 29.7187 18.5909 27.4216 20.888ZM31.6113 23.2853C31.3603 23.8088 31.165 24.3638 31.0328 24.9426C30.7327 24.8074 30.4418 24.6523 30.1627 24.4761C30.2769 24.3147 30.4052 24.1604 30.5496 24.016C30.8593 23.7064 31.2195 23.4602 31.6113 23.2853ZM30.5497 29.0271C29.6157 28.0931 29.3141 26.7632 29.643 25.5726C30.0292 25.807 30.4331 26.009 30.852 26.1772C30.84 26.3558 30.8333 26.5359 30.8333 26.7176C30.8333 27.7378 31.0238 28.7271 31.3903 29.651C31.0843 29.4881 30.8018 29.2792 30.5497 29.0271Z" fill="#480CE7"/>
<path d="M46.266 23.93C46.1494 23.6176 45.8017 23.4593 45.4894 23.5759C45.1771 23.6925 45.0185 24.0402 45.1351 24.3526C45.4173 25.1076 45.5603 25.9034 45.5603 26.7176C45.5603 29.6523 43.6872 32.2354 40.8991 33.1451C40.6507 33.2261 40.4827 33.4577 40.4827 33.7188V37.0702L38.7729 38.3962C38.4646 38.6228 38.4647 39.1236 38.7729 39.3501L40.1014 40.3804L38.7729 41.4106C38.4646 41.6372 38.4646 42.138 38.7729 42.3646L40.1013 43.3948L38.7729 44.425C38.4646 44.6516 38.4646 45.1524 38.7729 45.3789L40.4827 46.7049V48.1533L38.8217 49.7987L37.3016 48.1674V43.1894C37.3016 42.856 37.0313 42.5858 36.698 42.5858C36.3647 42.5858 36.0944 42.856 36.0944 43.1894V48.4051C36.0944 48.5578 36.1523 48.7049 36.2564 48.8166L38.3629 51.0772C38.5838 51.324 38.9987 51.3323 39.2293 51.0944L41.5112 48.8339C41.6257 48.7206 41.69 48.5662 41.69 48.4051V46.4093C41.69 46.2227 41.6037 46.0467 41.4562 45.9323L40.1278 44.9021L41.4562 43.8718C41.7646 43.6453 41.7645 43.1445 41.4562 42.918L40.1278 41.8877L41.4562 40.8574C41.7646 40.6308 41.7645 40.13 41.4562 39.9035L40.1278 38.8732L41.4562 37.843C41.6037 37.7287 41.69 37.5526 41.69 37.366V34.1441C44.7448 32.9588 46.7676 30.0282 46.7676 26.7176C46.7674 25.7587 46.5988 24.8207 46.266 23.93Z" fill="#480CE7"/>
</g>
<defs>
<clipPath id="clip0_1_57">
<rect width="62" height="62" fill="white"/>
</clipPath>
</defs>
</svg>
