<svg width="62" height="62" viewBox="0 0 62 62" fill="none" xmlns="http://www.w3.org/2000/svg">
<g clip-path="url(#clip0_1_61)">
<path d="M31 62C48.1208 62 62 48.1208 62 31C62 13.8792 48.1208 0 31 0C13.8792 0 0 13.8792 0 31C0 48.1208 13.8792 62 31 62Z" fill="#F9E2FF"/>
<path d="M49.3182 25.3636H46.1477V18.3886H46.1473C46.1474 18.2738 46.1164 18.161 46.0574 18.0624L42.2528 11.7215C42.1965 11.6276 42.1168 11.5499 42.0215 11.4959C41.9262 11.442 41.8186 11.4136 41.7091 11.4136C41.5996 11.4136 41.492 11.442 41.3967 11.4959C41.3014 11.5499 41.2217 11.6276 41.1654 11.7215L37.3608 18.0624C37.3018 18.161 37.2707 18.2738 37.2709 18.3886H37.2705V21.5591H34.7341V20.2909H35.3682C35.5364 20.2909 35.6976 20.2241 35.8166 20.1052C35.9355 19.9863 36.0023 19.825 36.0023 19.6568V15.8523C36.0023 15.6841 35.9355 15.5228 35.8166 15.4039C35.6976 15.285 35.5364 15.2182 35.3682 15.2182H32.8318C32.6636 15.2182 32.5024 15.285 32.3834 15.4039C32.2645 15.5228 32.1977 15.6841 32.1977 15.8523V16.4864H30.9296V15.8523C30.9296 15.6841 30.8628 15.5228 30.7438 15.4039C30.6249 15.285 30.4636 15.2182 30.2955 15.2182H27.7591C27.5909 15.2182 27.4296 15.285 27.3107 15.4039C27.1918 15.5228 27.125 15.6841 27.125 15.8523V19.6568C27.125 19.825 27.1918 19.9863 27.3107 20.1052C27.4296 20.2241 27.5909 20.2909 27.7591 20.2909H28.3932V21.5591H25.8568V18.3886H25.8564C25.8565 18.2738 25.8254 18.161 25.7665 18.0624L21.9619 11.7215C21.9056 11.6276 21.8259 11.5499 21.7306 11.4959C21.6353 11.442 21.5277 11.4136 21.4182 11.4136C21.3087 11.4136 21.2011 11.442 21.1058 11.4959C21.0105 11.5499 20.9308 11.6276 20.8744 11.7215L17.0699 18.0624C17.0109 18.161 16.9798 18.2738 16.98 18.3886H16.9795V25.3636H13.8091C13.6409 25.3636 13.4796 25.4304 13.3607 25.5494C13.2418 25.6683 13.175 25.8296 13.175 25.9977V28.5341C13.175 28.7023 13.2418 28.8635 13.3607 28.9825C13.4796 29.1014 13.6409 29.1682 13.8091 29.1682V48.825C13.8091 48.9932 13.8759 49.1544 13.9948 49.2734C14.1137 49.3923 14.275 49.4591 14.4432 49.4591H48.6841C48.8523 49.4591 49.0135 49.3923 49.1325 49.2734C49.2514 49.1544 49.3182 48.9932 49.3182 48.825V29.1682C49.4864 29.1682 49.6476 29.1014 49.7666 28.9825C49.8855 28.8635 49.9523 28.7023 49.9523 28.5341V25.9977C49.9523 25.8296 49.8855 25.6683 49.7666 25.5494C49.6476 25.4304 49.4864 25.3636 49.3182 25.3636ZM48.6841 27.9H41.075V26.6318H48.6841V27.9ZM27.125 41.85H28.3932V48.1909H27.125V41.85ZM27.4212 40.5818C28.0493 39.9027 29.6182 39.3136 31.5636 39.3136C33.5091 39.3136 35.078 39.9027 35.7061 40.5818H27.4212ZM29.6614 41.85H30.9296V48.1909H29.6614V41.85ZM32.1977 41.85H33.4659V48.1909H32.1977V41.85ZM34.7341 41.85H36.0023V48.1909H34.7341V41.85ZM37.2705 41.2159C37.2705 40.2858 36.6183 39.4474 35.4342 38.8553C34.3897 38.3331 33.0152 38.0455 31.5636 38.0455C30.1121 38.0455 28.7376 38.3331 27.6931 38.8553C26.509 39.4474 25.8568 40.2858 25.8568 41.2159V48.1909H22.6864V36.7773H40.4409V48.1909H37.2705V41.2159ZM25.2227 34.2409C25.3909 34.2409 25.5522 34.1741 25.6711 34.0552C25.79 33.9363 25.8568 33.775 25.8568 33.6068V32.9727H27.125V33.6068C27.125 33.775 27.1918 33.9363 27.3107 34.0552C27.4296 34.1741 27.5909 34.2409 27.7591 34.2409H30.2955C30.4636 34.2409 30.6249 34.1741 30.7438 34.0552C30.8628 33.9363 30.9296 33.775 30.9296 33.6068V32.9727H32.1977V33.6068C32.1977 33.775 32.2645 33.9363 32.3834 34.0552C32.5024 34.1741 32.6636 34.2409 32.8318 34.2409H35.3682C35.5364 34.2409 35.6976 34.1741 35.8166 34.0552C35.9355 33.9363 36.0023 33.775 36.0023 33.6068V32.9727H37.2705V33.6068C37.2705 33.775 37.3372 33.9363 37.4562 34.0552C37.5751 34.1741 37.7364 34.2409 37.9046 34.2409H40.4409V35.5091H22.6864V34.2409H25.2227ZM44.8796 20.2909H43.6114V19.0227H44.8796V20.2909ZM42.3432 20.2909H41.075V19.0227H42.3432V20.2909ZM39.8068 20.2909H38.5386V19.0227H39.8068V20.2909ZM40.4409 25.3636C40.2727 25.3636 40.1115 25.4304 39.9925 25.5494C39.8736 25.6683 39.8068 25.8296 39.8068 25.9977V28.5341C39.8068 28.7023 39.8736 28.8635 39.9925 28.9825C40.1115 29.1014 40.2727 29.1682 40.4409 29.1682V32.9727H38.5386V21.5591H44.8796V25.3636H40.4409ZM41.7091 13.2802L44.3937 17.7545H39.0245L41.7091 13.2802ZM28.3932 16.4864H29.6614V17.1205C29.6614 17.2886 29.7282 17.4499 29.8471 17.5688C29.966 17.6878 30.1273 17.7545 30.2955 17.7545H32.8318C33 17.7545 33.1613 17.6878 33.2802 17.5688C33.3991 17.4499 33.4659 17.2886 33.4659 17.1205V16.4864H34.7341V19.0227H28.3932V16.4864ZM29.6614 20.2909H33.4659V21.5591H29.6614V20.2909ZM37.2705 22.8273V31.7045H35.3682C35.2 31.7045 35.0387 31.7713 34.9198 31.8903C34.8009 32.0092 34.7341 32.1705 34.7341 32.3386V32.9727H33.4659V32.3386C33.4659 32.1705 33.3991 32.0092 33.2802 31.8903C33.1613 31.7713 33 31.7045 32.8318 31.7045H30.2955C30.1273 31.7045 29.966 31.7713 29.8471 31.8903C29.7282 32.0092 29.6614 32.1705 29.6614 32.3386V32.9727H28.3932V32.3386C28.3932 32.1705 28.3264 32.0092 28.2075 31.8903C28.0885 31.7713 27.9273 31.7045 27.7591 31.7045H25.8568V22.8273H37.2705ZM18.2477 19.0227H19.5159V20.2909H18.2477V19.0227ZM20.7841 19.0227H22.0523V20.2909H20.7841V19.0227ZM23.3205 19.0227H24.5886V20.2909H23.3205V19.0227ZM21.4182 13.2802L24.1028 17.7545H18.7335L21.4182 13.2802ZM18.2477 21.5591H24.5886V32.9727H22.6864V29.1682C22.8546 29.1682 23.0158 29.1014 23.1347 28.9825C23.2537 28.8635 23.3205 28.7023 23.3205 28.5341V25.9977C23.3205 25.8296 23.2537 25.6683 23.1347 25.5494C23.0158 25.4304 22.8546 25.3636 22.6864 25.3636H18.2477V21.5591ZM14.4432 26.6318H22.0523V27.9H14.4432V26.6318ZM15.0773 29.1682H21.4182V48.1909H15.0773V29.1682ZM48.05 48.1909H41.7091V29.1682H48.05V48.1909Z" fill="#480CE7"/>
<path d="M34.7341 24.0955H36.0023V25.3636H34.7341V24.0955Z" fill="#480CE7"/>
<path d="M32.1977 24.0955H33.4659V25.3636H32.1977V24.0955Z" fill="#480CE7"/>
<path d="M42.3432 22.8273H43.6114V24.0955H42.3432V22.8273Z" fill="#480CE7"/>
<path d="M39.8068 22.8273H41.075V24.0955H39.8068V22.8273Z" fill="#480CE7"/>
<path d="M22.0523 22.8273H23.3205V24.0955H22.0523V22.8273Z" fill="#480CE7"/>
<path d="M19.5159 22.8273H20.7841V24.0955H19.5159V22.8273Z" fill="#480CE7"/>
<path d="M29.6614 24.0955H30.9295V25.3636H29.6614V24.0955Z" fill="#480CE7"/>
<path d="M27.125 24.0955H28.3932V25.3636H27.125V24.0955Z" fill="#480CE7"/>
<path d="M34.7341 26.6318H36.0023V27.9H34.7341V26.6318Z" fill="#480CE7"/>
<path d="M32.1977 26.6318H33.4659V27.9H32.1977V26.6318Z" fill="#480CE7"/>
<path d="M29.6614 26.6318H30.9295V27.9H29.6614V26.6318Z" fill="#480CE7"/>
<path d="M27.125 26.6318H28.3932V27.9H27.125V26.6318Z" fill="#480CE7"/>
<path d="M34.7341 29.1682H36.0023V30.4364H34.7341V29.1682Z" fill="#480CE7"/>
<path d="M32.1977 29.1682H33.4659V30.4364H32.1977V29.1682Z" fill="#480CE7"/>
<path d="M29.6614 29.1682H30.9295V30.4364H29.6614V29.1682Z" fill="#480CE7"/>
<path d="M27.125 29.1682H28.3932V30.4364H27.125V29.1682Z" fill="#480CE7"/>
<path d="M43.6114 36.7773H46.1477C46.3159 36.7773 46.4772 36.7105 46.5961 36.5915C46.715 36.4726 46.7818 36.3114 46.7818 36.1432V33.6068C46.7818 33.1023 46.5814 32.6185 46.2247 32.2617C45.8679 31.905 45.3841 31.7045 44.8795 31.7045C44.375 31.7045 43.8912 31.905 43.5344 32.2617C43.1777 32.6185 42.9773 33.1023 42.9773 33.6068V36.1432C42.9773 36.3114 43.0441 36.4726 43.163 36.5915C43.2819 36.7105 43.4432 36.7773 43.6114 36.7773ZM44.2455 33.6068C44.2455 33.4386 44.3122 33.2774 44.4312 33.1584C44.5501 33.0395 44.7114 32.9727 44.8795 32.9727C45.0477 32.9727 45.209 33.0395 45.3279 33.1584C45.4468 33.2774 45.5136 33.4386 45.5136 33.6068V35.5091H44.2455V33.6068Z" fill="#480CE7"/>
<path d="M18.2477 31.7045C17.7434 31.7051 17.2598 31.9057 16.9032 32.2623C16.5466 32.6189 16.346 33.1025 16.3455 33.6068V36.1432C16.3455 36.3114 16.4122 36.4726 16.5312 36.5915C16.6501 36.7105 16.8114 36.7773 16.9795 36.7773H19.5159C19.6841 36.7773 19.8454 36.7105 19.9643 36.5915C20.0832 36.4726 20.15 36.3114 20.15 36.1432V33.6068C20.1494 33.1025 19.9488 32.6189 19.5922 32.2623C19.2356 31.9057 18.7521 31.7051 18.2477 31.7045ZM18.8818 35.5091H17.6136V33.6068C17.6136 33.4386 17.6804 33.2774 17.7994 33.1584C17.9183 33.0395 18.0795 32.9727 18.2477 32.9727C18.4159 32.9727 18.5772 33.0395 18.6961 33.1584C18.815 33.2774 18.8818 33.4386 18.8818 33.6068V35.5091Z" fill="#480CE7"/>
</g>
<defs>
<clipPath id="clip0_1_61">
<rect width="62" height="62" fill="white"/>
</clipPath>
</defs>
</svg>
