<svg width="62" height="62" viewBox="0 0 62 62" fill="none" xmlns="http://www.w3.org/2000/svg">
<g clip-path="url(#clip0_1_82)">
<path d="M31 62C48.1208 62 62 48.1208 62 31C62 13.8792 48.1208 0 31 0C13.8792 0 0 13.8792 0 31C0 48.1208 13.8792 62 31 62Z" fill="#F9E2FF"/>
<path d="M15.6409 29.3091H18.2335L22.9816 32.7008C23.0966 32.7828 23.2335 32.8284 23.3748 32.8317C23.516 32.8349 23.655 32.7956 23.7736 32.7189C23.8922 32.6421 23.985 32.5315 24.0399 32.4014C24.0949 32.2712 24.1094 32.1275 24.0817 31.989L23.5457 29.3091H28.3227C29.2567 29.308 30.1521 28.9365 30.8125 28.2761C31.4729 27.6157 31.8444 26.7203 31.8455 25.7864V17.3318C31.8444 16.3979 31.4729 15.5025 30.8125 14.8421C30.1521 14.1816 29.2567 13.8102 28.3227 13.8091H15.6409C14.707 13.8102 13.8116 14.1816 13.1512 14.8421C12.4907 15.5025 12.1193 16.3979 12.1182 17.3318V25.7864C12.1193 26.7203 12.4907 27.6157 13.1512 28.2761C13.8116 28.9365 14.707 29.308 15.6409 29.3091ZM13.5273 17.3318C13.5279 16.7714 13.7508 16.2342 14.147 15.8379C14.5433 15.4417 15.0805 15.2188 15.6409 15.2182H28.3227C28.8831 15.2188 29.4203 15.4417 29.8166 15.8379C30.2128 16.2342 30.4357 16.7714 30.4364 17.3318V25.7864C30.4357 26.3467 30.2128 26.884 29.8166 27.2802C29.4203 27.6765 28.8831 27.8994 28.3227 27.9H22.6864C22.5821 27.9 22.4792 27.9232 22.3849 27.9677C22.2907 28.0123 22.2076 28.0773 22.1415 28.1579C22.0754 28.2385 22.028 28.3328 22.0028 28.434C21.9776 28.5351 21.9751 28.6406 21.9956 28.7428L22.3507 30.5182L18.8685 28.031C18.749 27.9458 18.6059 27.9 18.4591 27.9H15.6409C15.0805 27.8994 14.5433 27.6765 14.147 27.2802C13.7508 26.884 13.5279 26.3467 13.5273 25.7864V17.3318Z" fill="#480CE7"/>
<path d="M50.009 39.2644H47.4164L42.6683 42.6561C42.5533 42.7381 42.4164 42.7837 42.2751 42.787C42.1339 42.7902 41.9949 42.7509 41.8763 42.6742C41.7577 42.5974 41.6649 42.4868 41.61 42.3567C41.555 42.2265 41.5405 42.0829 41.5682 41.9443L42.1042 39.2644H37.3272C36.3932 39.2633 35.4978 38.8918 34.8374 38.2314C34.177 37.571 33.8055 36.6756 33.8044 35.7417V27.2871C33.8055 26.3532 34.177 25.4578 34.8374 24.7974C35.4978 24.137 36.3932 23.7655 37.3272 23.7644H50.009C50.9429 23.7655 51.8383 24.137 52.4987 24.7974C53.1591 25.4578 53.5306 26.3532 53.5317 27.2871V35.7417C53.5306 36.6756 53.1591 37.571 52.4987 38.2314C51.8383 38.8918 50.9429 39.2633 50.009 39.2644ZM52.1226 27.2871C52.122 26.7268 51.8991 26.1895 51.5028 25.7933C51.1066 25.397 50.5694 25.1741 50.009 25.1735H37.3272C36.7668 25.1741 36.2295 25.397 35.8333 25.7933C35.437 26.1895 35.2142 26.7268 35.2135 27.2871V35.7417C35.2142 36.302 35.437 36.8393 35.8333 37.2355C36.2295 37.6318 36.7668 37.8547 37.3272 37.8553H42.9635C43.0678 37.8553 43.1707 37.8785 43.2649 37.9231C43.3591 37.9676 43.4423 38.0326 43.5084 38.1132C43.5745 38.1938 43.6219 38.2881 43.6471 38.3893C43.6723 38.4904 43.6748 38.5959 43.6543 38.6981L43.2992 40.4736L46.7814 37.9864C46.9009 37.9011 47.044 37.8553 47.1908 37.8553H50.009C50.5694 37.8547 51.1066 37.6318 51.5028 37.2355C51.8991 36.8393 52.122 36.302 52.1226 35.7417V27.2871Z" fill="#480CE7"/>
<path d="M17.05 20.8545V25.0818C17.05 25.2687 17.1242 25.4479 17.2563 25.58C17.3885 25.7121 17.5677 25.7863 17.7545 25.7863H23.3909C23.5777 25.7863 23.7569 25.7121 23.8891 25.58C24.0212 25.4479 24.0954 25.2687 24.0954 25.0818V24.8128L25.8939 25.712C26.0014 25.7658 26.1208 25.7911 26.2408 25.7857C26.3607 25.7803 26.4773 25.7443 26.5795 25.6812C26.6816 25.618 26.766 25.5298 26.8245 25.4249C26.883 25.32 26.9136 25.2019 26.9136 25.0818V20.8545C26.9136 20.7345 26.883 20.6163 26.8245 20.5114C26.766 20.4065 26.6816 20.3183 26.5795 20.2551C26.4773 20.192 26.3607 20.1561 26.2408 20.1506C26.1208 20.1452 26.0014 20.1706 25.8939 20.2243L24.0954 21.1236V20.8545C24.0954 20.8428 24.0894 20.833 24.0887 20.8215C24.3177 20.5912 24.4988 20.3178 24.6218 20.0172C24.7446 19.7166 24.8069 19.3946 24.8048 19.0698C24.8027 18.745 24.7365 18.4239 24.6098 18.1248C24.4831 17.8258 24.2985 17.5548 24.0666 17.3273C23.8348 17.0999 23.5602 16.9206 23.2588 16.7997C22.9573 16.6789 22.6349 16.6188 22.3102 16.623C21.9855 16.6272 21.6648 16.6957 21.3665 16.8244C21.0684 16.9531 20.7986 17.1395 20.5727 17.3729C20.3469 17.1395 20.0771 16.9531 19.7788 16.8244C19.4807 16.6957 19.16 16.6272 18.8352 16.623C18.5104 16.6188 18.1881 16.6789 17.8866 16.7997C17.5852 16.9206 17.3106 17.0999 17.0787 17.3273C16.8469 17.5548 16.6623 17.8258 16.5356 18.1248C16.4089 18.4239 16.3427 18.745 16.3406 19.0698C16.3386 19.3946 16.4008 19.7166 16.5237 20.0172C16.6465 20.3178 16.8277 20.5912 17.0567 20.8215C17.0561 20.833 17.05 20.8428 17.05 20.8545ZM22.6864 24.3772H18.4591V21.5591H22.6864V24.3772ZM25.5045 21.9946V23.9418L24.0954 23.2372V22.6991L25.5045 21.9946ZM22.3341 18.0363C22.5431 18.0363 22.7474 18.0983 22.9212 18.2144C23.095 18.3306 23.2304 18.4956 23.3105 18.6887C23.3904 18.8818 23.4114 19.0943 23.3706 19.2993C23.3298 19.5043 23.2291 19.6926 23.0813 19.8405C22.9336 19.9883 22.7453 20.0889 22.5403 20.1297C22.3353 20.1705 22.1228 20.1495 21.9297 20.0695C21.7365 19.9896 21.5715 19.8541 21.4554 19.6803C21.3392 19.5065 21.2773 19.3022 21.2773 19.0931C21.2775 18.813 21.389 18.5443 21.5871 18.3462C21.7853 18.1481 22.0539 18.0367 22.3341 18.0363ZM18.8114 18.0363C19.0203 18.0363 19.2247 18.0983 19.3985 18.2144C19.5723 18.3306 19.7077 18.4956 19.7877 18.6887C19.8677 18.8818 19.8886 19.0943 19.8479 19.2993C19.8071 19.5043 19.7064 19.6926 19.5586 19.8405C19.4108 19.9883 19.2225 20.0889 19.0175 20.1297C18.8125 20.1705 18.6 20.1495 18.4069 20.0695C18.2138 19.9896 18.0488 19.8541 17.9326 19.6803C17.8165 19.5065 17.7545 19.3022 17.7545 19.0931C17.7548 18.813 17.8662 18.5443 18.0644 18.3462C18.2625 18.1481 18.5312 18.0367 18.8114 18.0363Z" fill="#480CE7"/>
<path d="M43.5879 31.6003C44.1452 31.6003 44.6901 31.435 45.1536 31.1254C45.617 30.8157 45.9783 30.3755 46.1915 29.8606C46.4049 29.3457 46.4607 28.779 46.3519 28.2323C46.2432 27.6856 45.9748 27.1835 45.5807 26.7894C45.1865 26.3953 44.6844 26.1269 44.1377 26.0181C43.591 25.9093 43.0243 25.9651 42.5094 26.1785C41.9945 26.3918 41.5543 26.753 41.2447 27.2164C40.935 27.6799 40.7697 28.2248 40.7697 28.7821C40.7705 29.5293 41.0677 30.2457 41.596 30.774C42.1243 31.3023 42.8407 31.5995 43.5879 31.6003ZM43.5879 27.3731C43.8666 27.3731 44.139 27.4557 44.3707 27.6105C44.6025 27.7653 44.7831 27.9854 44.8897 28.2429C44.9963 28.5004 45.0242 28.7837 44.9699 29.057C44.9155 29.3303 44.7813 29.5814 44.5843 29.7785C44.3872 29.9756 44.1361 30.1098 43.8628 30.1641C43.5894 30.2185 43.3061 30.1906 43.0486 30.084C42.7912 29.9773 42.5711 29.7967 42.4162 29.565C42.2614 29.3333 42.1788 29.0608 42.1788 28.7821C42.1792 28.4086 42.3278 28.0504 42.592 27.7863C42.8562 27.5221 43.2143 27.3735 43.5879 27.3731Z" fill="#480CE7"/>
<path d="M34.5376 36.7785L39.8532 32.746L45.5354 36.7785L49.3847 33.4792L53.0506 36.7785" stroke="#480CE7" stroke-width="2.60163" stroke-linejoin="round"/>
<path d="M15.6409 47.6273H26.9136C27.8476 47.6262 28.743 47.2546 29.4034 46.5943C30.0638 45.9339 30.4353 45.0385 30.4364 44.1045V39.8773C30.4353 38.9433 30.0638 38.0479 29.4034 37.3875C28.743 36.7271 27.8476 36.3556 26.9136 36.3545H26.4073L26.8923 34.4119C26.9258 34.2779 26.9191 34.1371 26.8732 34.007C26.8273 33.8768 26.7443 33.763 26.6342 33.6796C26.5243 33.5963 26.3922 33.5471 26.2545 33.5381C26.1168 33.5291 25.9794 33.5609 25.8595 33.6292L21.0901 36.3545H15.6409C14.707 36.3556 13.8116 36.7271 13.1512 37.3875C12.4907 38.0479 12.1193 38.9433 12.1182 39.8773V44.1045C12.1193 45.0385 12.4907 45.9339 13.1512 46.5943C13.8116 47.2546 14.707 47.6262 15.6409 47.6273ZM13.5273 39.8773C13.5279 39.3169 13.7508 38.7796 14.147 38.3834C14.5433 37.9872 15.0805 37.7643 15.6409 37.7636H21.2773C21.3999 37.7636 21.5204 37.7316 21.6268 37.6707L25.1254 35.6716L24.8213 36.8881C24.7953 36.9919 24.7933 37.1003 24.8156 37.2051C24.8377 37.3098 24.8835 37.4081 24.9494 37.4925C25.0152 37.5769 25.0995 37.6452 25.1956 37.6922C25.2918 37.7392 25.3975 37.7636 25.5045 37.7636H26.9136C27.474 37.7643 28.0113 37.9872 28.4075 38.3834C28.8037 38.7796 29.0266 39.3169 29.0273 39.8773V44.1045C29.0266 44.6649 28.8037 45.2022 28.4075 45.5984C28.0113 45.9946 27.474 46.2176 26.9136 46.2182H15.6409C15.0805 46.2176 14.5433 45.9946 14.147 45.5984C13.7508 45.2022 13.5279 44.6649 13.5273 44.1045V39.8773Z" fill="#480CE7"/>
<path d="M22.6864 39.8773H14.9364V41.2864H22.6864V39.8773Z" fill="#480CE7"/>
<path d="M27.6182 39.8773H24.0955V41.2864H27.6182V39.8773Z" fill="#480CE7"/>
<path d="M27.6182 42.6954H14.9364V44.1045H27.6182V42.6954Z" fill="#480CE7"/>
</g>
<defs>
<clipPath id="clip0_1_82">
<rect width="62" height="62" fill="white"/>
</clipPath>
</defs>
</svg>
