<svg width="62" height="62" viewBox="0 0 62 62" fill="none" xmlns="http://www.w3.org/2000/svg">
<g clip-path="url(#clip0_1_98)">
<path fill-rule="evenodd" clip-rule="evenodd" d="M31 62C48.1208 62 62 48.1208 62 31C62 13.8792 48.1208 0 31 0C13.8792 0 0 13.8792 0 31C0 48.1208 13.8792 62 31 62Z" fill="#D321FF" fill-opacity="0.13"/>
<path d="M30.9145 28.9817C34.8968 28.9817 38.1251 25.7534 38.1251 21.7711C38.1251 17.7888 34.8968 14.5605 30.9145 14.5605C26.9322 14.5605 23.7039 17.7888 23.7039 21.7711C23.7039 25.7534 26.9322 28.9817 30.9145 28.9817Z" stroke="#480CE7" stroke-width="2.0202"/>
<path d="M45.1961 43.6401C45.1961 44.5103 45.116 45.3614 44.9627 46.1869H44.9594H44.9454H44.9313H44.9171H44.9026H44.8882H44.8735H44.8587H44.8437H44.8286H44.8134H44.798H44.7826H44.7669H44.7511H44.7352H44.7192H44.7031H44.6867H44.6703H44.6537H44.6371H44.6202H44.6032H44.5861H44.5689H44.5515H44.534H44.5164H44.4986H44.4807H44.4627H44.4445H44.4263H44.4078H44.3893H44.3706H44.3518H44.3329H44.3138H44.2947H44.2754H44.2559H44.2364H44.2167H44.1969H44.1769H44.1569H44.1367H44.1164H44.0959H44.0754H44.0548H44.0339H44.013H43.992H43.9709H43.9496H43.9282H43.9066H43.885H43.8633H43.8414H43.8194H43.7973H43.775H43.7527H43.7302H43.7076H43.6849H43.6621H43.6392H43.6161H43.593H43.5696H43.5463H43.5228H43.4991H43.4754H43.4515H43.4276H43.4036H43.3794H43.355H43.3306H43.3061H43.2815H43.2568H43.2319H43.2069H43.1818H43.1567H43.1314H43.106H43.0805H43.0549H43.0292H43.0034H42.9775H42.9514H42.9252H42.899H42.8727H42.8462H42.8197H42.7929H42.7662H42.7393H42.7123H42.6853H42.6581H42.6308H42.6035H42.5759H42.5484H42.5207H42.4929H42.465H42.4371H42.4089H42.3808H42.3525H42.3241H42.2956H42.2671H42.2384H42.2097H42.1808H42.1519H42.1228H42.0937H42.0644H42.0351H42.0056H41.9761H41.9465H41.9167H41.887H41.8571H41.8271H41.797H41.7668H41.7365H41.7062H41.6758H41.6452H41.6146H41.5839H41.5531H41.5223H41.4913H41.4602H41.429H41.3978H41.3665H41.3351H41.3035H41.272H41.2403H41.2085H41.1768H41.1448H41.1128H41.0807H41.0486H41.0163H40.9839H40.9515H40.919H40.8864H40.8538H40.821H40.7882H40.7553H40.7223H40.6893H40.6561H40.6229H40.5896H40.5562H40.5227H40.4893H40.4556H40.4219H40.3882H40.3543H40.3205H40.2864H40.2524H40.2182H40.1841H40.1497H40.1154H40.081H40.0465H40.0119H39.9773H39.9426H39.9078H39.8729H39.8379H39.803H39.7679H39.7328H39.6975H39.6623H39.6269H39.5915H39.556H39.5205H39.4849H39.4492H39.4134H39.3776H39.3417H39.3058H39.2698H39.2337H39.1976H39.1614H39.1251H39.0888H39.0524H39.0159H38.9794H38.9428H38.9062H38.8695H38.8328H38.796H38.7591H38.7221H38.6851H38.6481H38.611H38.5738H38.5366H38.4992H38.4619H38.4245H38.3871H38.3496H38.312H38.2743H38.2366H38.1989H38.1612H38.1233H38.0854H38.0475H38.0094H37.9714H37.9332H37.8951H37.8569H37.8186H37.7803H37.742H37.7035H37.6651H37.6266H37.588H37.5494H37.5107H37.472H37.4333H37.3944H37.3556H37.3167H37.2778H37.2388H37.1998H37.1607H37.1216H37.0824H37.0432H37.0039H36.9646H36.9253H36.8859H36.8465H36.807H36.7675H36.7279H36.6883H36.6487H36.6091H36.5694H36.5296H36.4898H36.45H36.4101H36.3702H36.3303H36.2903H36.2503H36.2102H36.1702H36.13H36.0899H36.0497H36.0094H35.9691H35.9288H35.8885H35.8482H35.8078H35.7673H35.7269H35.6863H35.6458H35.6053H35.5647H35.5241H35.4834H35.4427H35.402H35.3612H35.3205H35.2797H35.2389H35.198H35.1571H35.1163H35.0753H35.0343H34.9933H34.9523H34.9113H34.8702H34.8291H34.788H34.7469H34.7057H34.6645H34.6233H34.5821H34.5408H34.4996H34.4583H34.417H34.3756H34.3342H34.2929H34.2514H34.21H34.1686H34.1271H34.0857H34.0442H34.0027H33.9611H33.9196H33.878H33.8365H33.7949H33.7533H33.7116H33.67H33.6283H33.5867H33.545H33.5033H33.4616H33.4199H33.3782H33.3364H33.2947H33.2529H33.2112H33.1693H33.1275H33.0858H33.0439H33.0021H32.9602H32.9184H32.8765H32.8347H32.7928H32.751H32.709H32.6672H32.6253H32.5834H32.5415H32.4995H32.4576H32.4158H32.3738H32.3319H32.29H32.2481H32.2061H32.1641H32.1222H32.0803H32.0383H31.9964H31.9544H31.9125H31.8706H31.8286H31.7867H31.7448H31.7028H31.6608H31.6189H31.577H31.5351H31.4931H31.4513H31.4094H31.3674H31.3255H31.2836H31.2417H31.1998H31.1579H31.1161H31.0742H31.0323H30.9905H30.9486H30.9068H30.8649H30.8231H30.7812H30.7394H30.6974H30.6556H30.6137H30.5718H30.5299H30.488H30.446H30.4041H30.3622H30.3202H30.2783H30.2364H30.1945H30.1525H30.1106H30.0687H30.0268H29.9847H29.9428H29.9009H29.859H29.817H29.7751H29.7331H29.6912H29.6493H29.6073H29.5654H29.5235H29.4815H29.4396H29.3977H29.3558H29.3139H29.272H29.2301H29.1882H29.1464H29.1045H29.0626H29.0207H28.9789H28.937H28.8952H28.8534H28.8116H28.7698H28.7279H28.6862H28.6444H28.6026H28.5608H28.5191H28.4774H28.4357H28.394H28.3523H28.3106H28.2689H28.2273H28.1857H28.144H28.1024H28.0608H28.0193H27.9777H27.9361H27.8946H27.8531H27.8116H27.7701H27.7286H27.6873H27.6458H27.6044H27.563H27.5217H27.4803H27.439H27.3977H27.3565H27.3152H27.274H27.2328H27.1916H27.1504H27.1093H27.0682H27.027H26.986H26.945H26.904H26.863H26.822H26.7811H26.7401H26.6993H26.6584H26.6176H26.5768H26.536H26.4953H26.4545H26.4139H26.3732H26.3326H26.292H26.2514H26.211H26.1704H26.13H26.0895H26.0491H26.0088H25.9684H25.9281H25.8879H25.8476H25.8074H25.7673H25.7271H25.6871H25.647H25.607H25.567H25.527H25.4872H25.4473H25.4074H25.3677H25.3279H25.2882H25.2486H25.2089H25.1693H25.1298H25.0902H25.0508H25.0113H24.972H24.9327H24.8933H24.8541H24.8149H24.7757H24.7366H24.6975H24.6585H24.6195H24.5806H24.5417H24.5028H24.464H24.4253H24.3865H24.3479H24.3093H24.2708H24.2322H24.1937H24.1554H24.117H24.0786H24.0404H24.0022H23.964H23.926H23.8878H23.8498H23.8119H23.774H23.7362H23.6984H23.6607H23.6229H23.5853H23.5478H23.5102H23.4728H23.4354H23.398H23.3607H23.3235H23.2863H23.2492H23.2122H23.1752H23.1382H23.1014H23.0645H23.0278H22.9911H22.9544H22.9178H22.8813H22.8449H22.8085H22.7722H22.7359H22.6997H22.6636H22.6275H22.5915H22.5555H22.5196H22.4838H22.4481H22.4125H22.3768H22.3412H22.3058H22.2704H22.2351H22.1997H22.1645H22.1294H22.0943H22.0594H22.0244H21.9895H21.9547H21.92H21.8854H21.8508H21.8163H21.7819H21.7475H21.7133H21.679H21.6449H21.6109H21.5769H21.5429H21.5091H21.4753H21.4417H21.4081H21.3745H21.3411H21.3077H21.2744H21.2412H21.208H21.1749H21.142H21.1091H21.0763H21.0435H21.0109H20.9782H20.9458H20.9134H20.881H20.8487H20.8166H20.7845H20.7525H20.7206H20.6887H20.657H20.6253H20.5938H20.5622H20.5308H20.4995H20.4683H20.4371H20.4061H20.3751H20.3442H20.3134H20.2827H20.2521H20.2215H20.1911H20.1607H20.1305H20.1003H20.0702H20.0403H20.0103H19.9805H19.9508H19.9212H19.8917H19.8622H19.8329H19.8037H19.7745H19.7454H19.7165H19.6876H19.6589H19.6302H19.6016H19.5732H19.5448H19.5165H19.4883H19.4602H19.4323H19.4044H19.3766H19.3489H19.3213H19.2939H19.2664H19.2391H19.212H19.1849H19.1579H19.1311H19.1043H19.0776H19.051H19.0246H18.9983H18.972H18.9459H18.9198H18.894H18.8681H18.8424H18.8168H18.7913H18.7658H18.7406H18.7154H18.6904H18.6654H18.6405H18.6158H18.5912H18.5667H18.5423H18.5179H18.4937H18.4696H18.4457H18.4219H18.3981H18.3745H18.351H18.3276H18.3043H18.2812H18.2581H18.2352H18.2123H18.1896H18.1671H18.1446H18.1223H18.1H18.0779H18.0559H18.034H18.0122H17.9906H17.9691H17.9477H17.9264H17.9053H17.8842H17.8633H17.8425H17.8218H17.8013H17.7809H17.7606H17.7404H17.7204H17.7004H17.6806H17.6609H17.6413H17.6219H17.6027H17.5834H17.5644H17.5455H17.5267H17.508H17.4895H17.4711H17.4528H17.4346H17.4166H17.3987H17.3809H17.3633H17.3458H17.3285H17.3112H17.294H17.2771H17.2603H17.2436H17.227H17.2105H17.1942H17.178H17.162H17.1461H17.1304H17.1147H17.0992H17.0839H17.0687H17.0536H17.0386H17.0238H17.0092H16.9946H16.9802H16.966H16.9519H16.9379H16.9345C16.7813 45.3614 16.7012 44.5103 16.7012 43.6401C16.7012 35.8908 23.0701 29.5909 30.9486 29.5909C38.8271 29.5909 45.1961 35.8908 45.1961 43.6401Z" stroke="#480CE7" stroke-width="2.0202"/>
<path d="M13.7954 34.8472L16.1866 45.3685C16.3162 45.9387 16.8232 46.3434 17.408 46.3434H32.8982C33.702 46.3434 34.2977 45.5971 34.1195 44.8133L31.7284 34.2921C31.5988 33.7218 31.0918 33.3171 30.507 33.3171H15.0168C14.213 33.3171 13.6173 34.0635 13.7954 34.8472Z" fill="#F9E2FF" stroke="#480CE7" stroke-width="2.0202"/>
<path d="M13.1515 46.3435H47.4935" stroke="#480CE7" stroke-width="2.0202" stroke-linecap="round"/>
<path d="M23.8093 41.416C24.8485 41.416 25.6909 40.5735 25.6909 39.5343C25.6909 38.4951 24.8485 37.6527 23.8093 37.6527C22.7701 37.6527 21.9277 38.4951 21.9277 39.5343C21.9277 40.5735 22.7701 41.416 23.8093 41.416Z" stroke="#480CE7" stroke-width="2.0202"/>
</g>
<defs>
<clipPath id="clip0_1_98">
<rect width="62" height="62" fill="white"/>
</clipPath>
</defs>
</svg>
