<svg width="62" height="62" viewBox="0 0 62 62" fill="none" xmlns="http://www.w3.org/2000/svg">
<g clip-path="url(#clip0_1_105)">
<path fill-rule="evenodd" clip-rule="evenodd" d="M31 62C48.1208 62 62 48.1208 62 31C62 13.8792 48.1208 0 31 0C13.8792 0 0 13.8792 0 31C0 48.1208 13.8792 62 31 62Z" fill="#D321FF" fill-opacity="0.13"/>
<path d="M10.6385 22.7801C10.98 22.7801 11.2568 22.5034 11.2568 22.1617V18.3417C11.2568 17.1977 12.1932 16.2669 13.3443 16.2669H33.945C34.2865 16.2669 34.5634 15.9902 34.5634 15.6486C34.5634 15.3071 34.2865 15.0303 33.945 15.0303H13.3443C11.5113 15.0303 10.0201 16.5158 10.0201 18.3417V22.1617C10.0201 22.5034 10.297 22.7801 10.6385 22.7801Z" fill="#480CE7"/>
<path d="M43.9836 46.3594H13.3443C12.1932 46.3594 11.2568 45.4287 11.2568 44.2847V25.0474C11.2568 24.7059 10.98 24.4291 10.6385 24.4291C10.297 24.4291 10.0201 24.7059 10.0201 25.0474V44.2847C10.0201 46.1106 11.5113 47.5961 13.3443 47.5961H43.9836C44.325 47.5961 44.6019 47.3193 44.6019 46.9777C44.6019 46.6362 44.325 46.3594 43.9836 46.3594Z" fill="#480CE7"/>
<path d="M48.9075 15.0304H36.8286C36.4871 15.0304 36.2103 15.3071 36.2103 15.6487C36.2103 15.9902 36.4871 16.2671 36.8286 16.2671H48.9075C50.0586 16.2671 50.9951 17.1978 50.9951 18.3417V44.2846C50.9951 45.4286 50.0586 46.3594 48.9075 46.3594H46.8684C46.5269 46.3594 46.2501 46.6361 46.2501 46.9777C46.2501 47.3192 46.5269 47.5961 46.8684 47.5961H48.9075C50.7405 47.5961 52.2317 46.1105 52.2317 44.2846V18.3417C52.2317 16.5158 50.7406 15.0304 48.9075 15.0304Z" fill="#480CE7"/>
<path d="M19.9284 34.7393C19.5869 34.7393 19.31 35.016 19.31 35.3575V41.2529C19.31 42.2126 20.2156 42.9643 21.3719 42.9643C22.5281 42.9643 23.4338 42.2126 23.4338 41.2529V29.1343C25.2711 29.0278 26.7332 27.5059 26.7332 25.6497C26.7332 23.7935 25.2711 22.2717 23.4338 22.1651V21.1774C23.4338 20.2217 22.5281 19.4731 21.3719 19.4731C20.2156 19.4731 19.31 20.2217 19.31 21.1774V22.1651C17.4726 22.2716 16.0105 23.7935 16.0105 25.6497C16.0105 27.5059 17.4726 29.0277 19.31 29.1343V32.4087C19.31 32.7504 19.5869 33.0271 19.9284 33.0271C20.2698 33.0271 20.5467 32.7504 20.5467 32.4087V29.1408H22.1972V41.2529C22.1972 41.477 21.8442 41.7277 21.3719 41.7277C20.8997 41.7277 20.5467 41.477 20.5467 41.2529V35.3575C20.5466 35.016 20.2698 34.7393 19.9284 34.7393ZM21.3719 20.7098C21.8366 20.7098 22.1971 20.9611 22.1971 21.1774V22.1586H20.5467V21.1774C20.5467 20.9611 20.9071 20.7098 21.3719 20.7098ZM17.2472 25.6497C17.2472 24.4066 18.265 23.3953 19.516 23.3953H23.2278C24.4788 23.3953 25.4967 24.4066 25.4967 25.6497C25.4967 26.8928 24.4788 27.9041 23.2278 27.9041C22.8654 27.8809 19.9581 27.917 19.516 27.9041C18.2649 27.9041 17.2472 26.8928 17.2472 25.6497Z" fill="#480CE7"/>
<path d="M36.6318 36.7304C36.6318 34.8716 35.1652 33.3476 33.3238 33.2452L33.3328 21.1948C33.3328 20.235 32.4272 19.4832 31.271 19.4832C30.1149 19.4832 29.2091 20.235 29.2091 21.1952L29.2167 33.2452C27.3755 33.3477 25.9089 34.8716 25.9089 36.7304C25.9089 38.5885 27.3742 40.1118 29.2143 40.2154L29.2091 41.2823C29.2091 42.2372 30.1148 42.9851 31.271 42.9851C32.4272 42.9851 33.3328 42.2372 33.3328 41.2787L33.3267 40.2153C35.1666 40.1116 36.6318 38.5884 36.6318 36.7304ZM31.271 20.7198C31.7433 20.7198 32.0962 20.9705 32.0962 21.1943L32.0872 33.2394H30.4534L30.4458 21.1948C30.4458 20.9705 30.7987 20.7198 31.271 20.7198ZM31.271 41.7485C30.8062 41.7485 30.4458 41.498 30.4458 41.2853L30.451 40.2215H32.09L32.0962 41.2824C32.0962 41.498 31.7357 41.7485 31.271 41.7485ZM33.1263 38.9849H29.4143C28.1634 38.9849 27.1456 37.9735 27.1456 36.7304C27.1456 35.4873 28.1634 34.476 29.4143 34.476H33.1263C34.3774 34.476 35.3951 35.4873 35.3951 36.7304C35.3951 37.9735 34.3774 38.9849 33.1263 38.9849Z" fill="#480CE7"/>
<path d="M43.0659 26.4332V21.2079C43.0659 20.2452 42.1602 19.4911 41.004 19.4911C39.8478 19.4911 38.9421 20.2452 38.9421 21.2098L38.9578 26.4321C37.113 26.5309 35.6426 28.0565 35.6426 29.9179C35.6426 31.7794 37.1134 33.3052 38.9585 33.4037L38.9421 41.3075C38.9421 42.2635 39.8478 43.0122 41.004 43.0122C42.1602 43.0122 43.0659 42.2635 43.0659 41.3075V33.4024C44.9032 33.2959 46.3654 31.774 46.3654 29.9179C46.3654 28.0617 44.9032 26.5397 43.0659 26.4332ZM41.0039 20.7277C41.4762 20.7277 41.8291 20.9812 41.8291 21.2078V26.4266H40.1943L40.1786 21.2078C40.1787 20.9813 40.5316 20.7277 41.0039 20.7277ZM41.0039 41.7754C40.5392 41.7754 40.1787 41.5237 40.1787 41.3087L40.1951 33.4089H41.8292V41.3074C41.8292 41.5238 41.4688 41.7754 41.0039 41.7754ZM42.86 32.1722H39.148C37.897 32.1722 36.8792 31.1609 36.8792 29.9178C36.8792 28.6747 37.897 27.6633 39.148 27.6633H42.86C44.1109 27.6633 45.1287 28.6747 45.1287 29.9178C45.1287 31.1609 44.1109 32.1722 42.86 32.1722Z" fill="#480CE7"/>
</g>
<defs>
<clipPath id="clip0_1_105">
<rect width="62" height="62" fill="white"/>
</clipPath>
</defs>
</svg>
