<svg width="62" height="62" viewBox="0 0 62 62" fill="none" xmlns="http://www.w3.org/2000/svg">
<g clip-path="url(#clip0_1_113)">
<path fill-rule="evenodd" clip-rule="evenodd" d="M31 62C48.1208 62 62 48.1208 62 31C62 13.8792 48.1208 0 31 0C13.8792 0 0 13.8792 0 31C0 48.1208 13.8792 62 31 62Z" fill="#D321FF" fill-opacity="0.13"/>
<path d="M43.2289 31.9734C43.2262 30.8633 42.9645 29.7721 42.4657 28.7817L43.6114 27.6359C44.4704 26.777 44.4704 25.3793 43.6114 24.5203C43.183 24.0918 42.6206 23.8772 42.0578 23.8761C42.057 23.2888 41.8279 22.7368 41.4126 22.3214C40.9839 21.8928 40.421 21.678 39.8579 21.6773C39.8571 21.1141 39.6423 20.5513 39.2137 20.1225C38.7985 19.7074 38.2469 19.4784 37.66 19.4773C37.6589 18.8905 37.4299 18.3389 37.0148 17.9237C36.5987 17.5075 36.0454 17.2784 35.4569 17.2784C34.8686 17.2784 34.3152 17.5075 33.8992 17.9237L31.6267 20.1962L30.3621 18.9317C29.946 18.5156 29.3928 18.2864 28.8043 18.2864C28.2158 18.2864 27.6625 18.5156 27.2465 18.9317C26.8311 19.3471 26.6021 19.8991 26.6012 20.4864C26.0385 20.4875 25.476 20.7021 25.0476 21.1305C24.6324 21.5457 24.4034 22.0973 24.4023 22.6842C23.8155 22.6853 23.2638 22.9143 22.8486 23.3294C22.1393 24.0388 22.0164 25.1152 22.4786 25.9526C22.1603 26.0566 21.861 26.2343 21.6084 26.4869C20.7495 27.3459 20.7495 28.7436 21.6084 29.6026L22.526 30.5202L15.2357 37.8104C14.9826 38.0636 14.9826 38.4741 15.2357 38.7273C15.3624 38.8538 15.5283 38.9172 15.6941 38.9172C15.8601 38.9172 16.026 38.8538 16.1525 38.7273L21.0945 33.7853L25.7239 38.4148L18.3088 45.8299C18.0557 46.083 18.0557 46.4935 18.3088 46.7467C18.4355 46.8733 18.6014 46.9366 18.7672 46.9366C18.9332 46.9366 19.0991 46.8733 19.2257 46.7467L29.2481 36.7243C29.4327 36.5397 29.6429 36.39 29.8703 36.2775L31.4388 37.3106C32.4762 37.994 33.7411 38.2609 34.9606 38.0634L43.6769 46.7798C43.8035 46.9063 43.9694 46.9697 44.1353 46.9697C44.3012 46.9697 44.4672 46.9063 44.5937 46.7798C44.8468 46.5266 44.8468 46.1162 44.5937 45.863L39.5363 40.8056L40.1477 40.1942C40.4008 39.9411 40.4008 39.5306 40.1477 39.2774C39.8945 39.0242 39.4841 39.0242 39.2309 39.2774L38.6195 39.8888L37.1881 38.4573L42.5335 33.1118L43.965 34.5433L43.355 35.1533C43.1018 35.4065 43.1018 35.8169 43.355 36.0701C43.4816 36.1967 43.6475 36.26 43.8134 36.26C43.9792 36.26 44.1452 36.1967 44.2718 36.0701L44.8818 35.4601L47.1147 37.693C47.2414 37.8196 47.4072 37.883 47.5731 37.883C47.739 37.883 47.905 37.8196 48.0315 37.693C48.2847 37.4399 48.2847 37.0295 48.0315 36.7762L43.2289 31.9734ZM34.8159 18.8405C34.9871 18.6693 35.2148 18.5749 35.4569 18.5749C35.6991 18.5749 35.9267 18.6693 36.0979 18.8405C36.2692 19.0117 36.3635 19.2393 36.3635 19.4815C36.3635 19.7236 36.2692 19.9513 36.0979 20.1225L34.6734 21.5471C34.4203 21.8003 34.4203 22.2107 34.6734 22.464C34.9265 22.7172 35.337 22.7171 35.5902 22.464L37.0148 21.0394C37.186 20.8681 37.4137 20.7738 37.6558 20.7738C37.898 20.7738 38.1257 20.8682 38.2969 21.0394C38.6504 21.3929 38.6504 21.968 38.2969 22.3214L36.1216 24.4968C35.8684 24.7499 35.8684 25.1604 36.1216 25.4136C36.2482 25.5403 36.4141 25.6035 36.58 25.6035C36.7458 25.6035 36.9118 25.5403 37.0383 25.4136L39.2137 23.2383C39.3849 23.067 39.6126 22.9728 39.8547 22.9728C40.0969 22.9728 40.3246 23.0671 40.4958 23.2383C40.667 23.4095 40.7613 23.6372 40.7613 23.8793C40.7613 24.1215 40.667 24.3491 40.4958 24.5203L38.3204 26.6956C38.0673 26.9488 38.0673 27.3593 38.3204 27.6124C38.447 27.7391 38.6129 27.8023 38.7788 27.8023C38.9447 27.8023 39.1107 27.7391 39.2372 27.6124L41.4124 25.4372C41.7659 25.0836 42.3411 25.0837 42.6945 25.4372C43.0481 25.7907 43.0481 26.3658 42.6945 26.7193L37.3362 32.0775C35.6206 33.7931 33.3396 34.738 30.9133 34.738C30.2563 34.738 29.6261 34.911 29.0737 35.2343L25.3214 31.4821C25.6102 31.3731 25.8752 31.2034 26.1 30.9786C26.5154 30.5632 26.7443 30.0112 26.7452 29.4239C27.308 29.4228 27.8705 29.2081 28.2989 28.7797C28.7273 28.3513 28.942 27.7888 28.943 27.226C29.5304 27.2252 30.0824 26.9962 30.4977 26.5808C30.9262 26.1523 31.1408 25.5899 31.1418 25.027C31.7292 25.0263 32.2811 24.7973 32.6965 24.3819C33.1126 23.9658 33.3418 23.4126 33.3418 22.824C33.3418 22.2356 33.1126 21.6823 32.6965 21.2662L32.5432 21.1129L34.8159 18.8405ZM28.1633 19.8484C28.3345 19.6772 28.5622 19.5829 28.8043 19.5829C29.0464 19.5829 29.2741 19.6772 29.4453 19.8484L31.78 22.183C31.9512 22.3542 32.0455 22.5819 32.0455 22.824C32.0455 23.0662 31.9512 23.2938 31.78 23.4651C31.6088 23.6363 31.3811 23.7306 31.1389 23.7306C30.8968 23.7306 30.6693 23.6364 30.4981 23.4653C30.498 23.4653 30.498 23.4652 30.4979 23.465L28.1633 21.1305C27.9921 20.9592 27.8977 20.7316 27.8977 20.4894C27.8977 20.2473 27.992 20.0197 28.1633 19.8484ZM25.9644 22.0473C26.1411 21.8706 26.3732 21.7822 26.6054 21.7822C26.8375 21.7822 27.0697 21.8706 27.2464 22.0473L29.581 24.3819C29.9345 24.7354 29.9344 25.3105 29.581 25.664C29.4098 25.8352 29.1822 25.9296 28.94 25.9296C28.6979 25.9296 28.4704 25.8353 28.2992 25.6643C28.2991 25.6642 28.299 25.6641 28.299 25.6639L25.9644 23.3294C25.7932 23.1582 25.6989 22.9305 25.6989 22.6883C25.6988 22.4462 25.7932 22.2186 25.9644 22.0473ZM23.7655 24.2462C23.9367 24.075 24.1644 23.9807 24.4065 23.9807C24.6487 23.9807 24.8763 24.075 25.0476 24.2462L27.3821 26.5808C27.7357 26.9343 27.7357 27.5095 27.3821 27.8629C27.0287 28.2163 26.4535 28.2164 26.1001 27.8629L23.7654 25.5283C23.412 25.1748 23.412 24.5996 23.7655 24.2462ZM22.5251 27.4037C22.702 27.2269 22.9341 27.1386 23.1662 27.1386C23.3981 27.1386 23.63 27.2268 23.8066 27.4031L25.1832 28.7798C25.3544 28.9509 25.4488 29.1786 25.4488 29.4208C25.4488 29.6629 25.3544 29.8906 25.1832 30.0618C25.012 30.2331 24.7844 30.3273 24.5422 30.3273C24.3003 30.3273 24.0727 30.2332 23.9015 30.0621L23.9011 30.0618L22.5251 28.6858C22.1717 28.3323 22.1717 27.7571 22.5251 27.4037ZM22.0114 32.8685L23.4429 31.437L28.0724 36.0665L26.6409 37.498L22.0114 32.8685ZM35.6322 36.9014C35.4725 36.7418 35.2413 36.6764 35.022 36.7296C34.0409 36.9658 32.9948 36.7829 32.152 36.2279L31.801 35.9966C34.2387 35.7914 36.5034 34.7441 38.2531 32.9943L41.4884 29.7591C41.7667 30.4317 41.9168 31.1506 41.9306 31.8813L36.2714 37.5406L35.6322 36.9014Z" fill="#480CE7"/>
<path d="M41.2922 37.2162C41.1717 37.3368 41.1023 37.5034 41.1023 37.6745C41.1023 37.845 41.1717 38.0123 41.2922 38.1328C41.4128 38.2534 41.58 38.3228 41.7505 38.3228C41.9217 38.3228 42.0883 38.2535 42.2088 38.1328C42.3294 38.0123 42.3988 37.845 42.3988 37.6745C42.3988 37.5033 42.3294 37.3368 42.2088 37.2162C42.0883 37.0956 41.921 37.0262 41.7505 37.0262C41.58 37.0262 41.4128 37.0956 41.2922 37.2162Z" fill="#480CE7"/>
<path d="M19.4099 19.0741C19.5365 19.2008 19.7024 19.264 19.8683 19.264C20.0341 19.264 20.2001 19.2008 20.3266 19.0741C20.5798 18.821 20.5798 18.4105 20.3266 18.1573L17.2752 15.1059C17.022 14.8527 16.6116 14.8527 16.3584 15.1059C16.1051 15.359 16.1052 15.7695 16.3584 16.0227L19.4099 19.0741Z" fill="#480CE7"/>
<path d="M22.939 17.3119C23.297 17.3119 23.5873 17.0217 23.5873 16.6636V14.4261C23.5873 14.0681 23.297 13.7778 22.939 13.7778C22.5809 13.7778 22.2907 14.0681 22.2907 14.4261V16.6636C22.2907 17.0217 22.5809 17.3119 22.939 17.3119Z" fill="#480CE7"/>
<path d="M15.6785 22.335H17.916C18.274 22.335 18.5643 22.0447 18.5643 21.6867C18.5643 21.3287 18.274 21.0385 17.916 21.0385H15.6785C15.3204 21.0385 15.0302 21.3287 15.0302 21.6867C15.0302 22.0447 15.3204 22.335 15.6785 22.335Z" fill="#480CE7"/>
<path d="M43.3834 19.2641C43.5493 19.2641 43.7153 19.2008 43.8418 19.0742L46.8933 16.0227C47.1464 15.7696 47.1464 15.3592 46.8933 15.1059C46.6401 14.8527 46.2297 14.8528 45.9764 15.1059L42.925 18.1574C42.6718 18.4105 42.6718 18.821 42.925 19.0742C43.0516 19.2008 43.2176 19.2641 43.3834 19.2641Z" fill="#480CE7"/>
<path d="M40.3126 17.3119C40.6705 17.3119 40.9608 17.0217 40.9608 16.6636V14.4261C40.9608 14.0681 40.6705 13.7778 40.3126 13.7778C39.9545 13.7778 39.6643 14.0681 39.6643 14.4261V16.6636C39.6643 17.0217 39.9545 17.3119 40.3126 17.3119Z" fill="#480CE7"/>
<path d="M44.6873 21.6867C44.6873 22.0447 44.9776 22.335 45.3356 22.335H47.5732C47.9313 22.335 48.2214 22.0447 48.2214 21.6867C48.2214 21.3287 47.9313 21.0385 47.5732 21.0385H45.3356C44.9776 21.0385 44.6873 21.3287 44.6873 21.6867Z" fill="#480CE7"/>
</g>
<defs>
<clipPath id="clip0_1_113">
<rect width="62" height="62" fill="white"/>
</clipPath>
</defs>
</svg>
